<svg xmlns="http://www.w3.org/2000/svg" width="18" height="18" viewBox="0 0 18 18">
  <path d="M8 2 C8.55 2 9 2.45 9 3 L9 7.1 L10.2 7.1 L10.2 4 C10.2 3.45 10.65 3 11.2 3 C11.75 3 12.2 3.45 12.2 4 L12.2 8 L13.3 8 C13.85 8 14.3 8.45 14.3 9 C14.3 9.55 13.85 10 13.3 10 L13.2 11.2 C13.2 13.6 11.55 16 9.2 16 L7.9 16 C5.8 16 4.3 14.75 3.6 12.7 L2.7 10.4 C2.52 9.88 2.8 9.3 3.32 9.12 C3.84 8.94 4.42 9.22 4.6 9.74 L5.2 11.3 L5.2 3 C5.2 2.45 5.65 2 6.2 2 C6.75 2 7.2 2.45 7.2 3 L7.2 7.1 L8 7.1 Z" fill="#ffffff" stroke="#000000" stroke-width="1"/>
</svg>
